<svg xmlns="http://www.w3.org/2000/svg" width="22" height="22" viewBox="0 0 22 22" fill="none">
<path d="M11.1862 2.38444L6.15207 8.13772C5.89572 8.4307 5.76754 8.57719 5.6762 8.74313C5.59518 8.89033 5.53578 9.04842 5.49982 9.21254C5.45929 9.39758 5.45929 9.59223 5.45929 9.98153V14.8795C5.45929 15.8596 5.45929 16.3496 5.65003 16.724C5.81781 17.0532 6.08552 17.321 6.41481 17.4887C6.78915 17.6795 7.2792 17.6795 8.25929 17.6795H13.8207C14.5866 17.6795 14.9695 17.6795 15.2902 17.5472C15.5732 17.4304 15.8206 17.2414 16.0077 16.9991C16.2197 16.7246 16.3205 16.3551 16.522 15.6162L17.6197 11.5912L17.6197 11.5912C17.9477 10.3888 18.1116 9.78755 17.9726 9.31268C17.8507 8.89662 17.5788 8.54059 17.2095 8.31358C16.7879 8.05447 16.1647 8.05447 14.9184 8.05447H11.5843L13.4134 3.78656C13.7902 2.90743 13.1453 1.92947 12.1888 1.92947C11.8047 1.92947 11.4392 2.09532 11.1862 2.38444Z" stroke="#A9ABBA" stroke-width="1.2" stroke-linecap="round" stroke-linejoin="round"/>
<path d="M2.83429 8.92943L2.83429 17.6794" stroke="#A9ABBA" stroke-width="1.2" stroke-linecap="round" stroke-linejoin="round"/>
</svg>